<svg xmlns="http://www.w3.org/2000/svg" viewBox="0 0 75.93 75.93"><g id="Calque_2" data-name="Calque 2"><g id="_05-FULL-WHITE" data-name="05-FULL-WHITE"><path d="M38 0a38 38 0 1038 38A38 38 0 0038 0zm14.4 29.92v1c0 10.41-7.73 22.42-21.86 22.42a21.41 21.41 0 01-11.78-3.54 15.78 15.78 0 001.83.11 15.21 15.21 0 009.55-3.37A7.72 7.72 0 0123 41.09a7.64 7.64 0 001.44.14 8.08 8.08 0 002.09-.23 7.77 7.77 0 01-6.09-7.73v-.09a7.21 7.21 0 003.41 1 8 8 0 01-2.44-10.52 21.61 21.61 0 0015.83 8.23A7.62 7.62 0 0137 30a7.78 7.78 0 017.67-7.88 7.58 7.58 0 015.61 2.48 15 15 0 004.88-1.91 7.83 7.83 0 01-3.38 4.36 14.81 14.81 0 004.41-1.24 15.67 15.67 0 01-3.79 4.11z" fill="#fff" id="Twitter"/></g></g></svg>