<?xml version="1.0" encoding="utf-8"?>
<!-- Generator: Adobe Illustrator 21.0.0, SVG Export Plug-In . SVG Version: 6.00 Build 0)  -->
<svg version="1.1" id="Calque_1" xmlns="http://www.w3.org/2000/svg" xmlns:xlink="http://www.w3.org/1999/xlink" x="0px" y="0px"
	 viewBox="0 0 100 125" style="enable-background:new 0 0 100 125;" xml:space="preserve">
<path d="M79,67c-0.7-1.3-7.7-8.8-16.1-17.4c8.6-8.7,15.8-16.3,16.7-18.1c1.4-2.6-6-14.7-11.3-11.3c-2.7,1.7-10,8.6-18.1,16.7
	c-9-9-17.1-16.6-19-17.6c-2.6-1.4-12.8,8.3-11.3,12.7c0.3,1.1,7.9,9.1,17,18.3C28.3,59.2,21.2,66.8,20.5,68
	c-1.9,3.4,5.3,14.6,11.3,11.3c1.3-0.7,9-7.9,17.8-16.5c9.6,9.3,18.1,17,19.5,16.9C73.5,79.5,82.3,73.1,79,67z"/>
</svg>
