<svg xmlns="http://www.w3.org/2000/svg" viewBox="0 0 48.69 68.42"><defs><style>.cls-1{fill:#060605;}.cls-12,.cls-2,.cls-5,.cls-6,.cls-7{fill:none;stroke-miterlimit:10;}.cls-12,.cls-2,.cls-5{stroke:#1d1d1b;}.cls-2,.cls-6{stroke-width:0.2px;}.cls-3{fill:#ffd500;}.cls-4{fill:#eecb37;}.cls-5,.cls-7{stroke-width:0.5px;}.cls-6,.cls-7{stroke:#010101;}.cls-8{fill:#ffce00;}.cls-9{fill:#d5b010;}.cls-10{fill:#f3e06d;}.cls-11{fill:#1d1d1b;}.cls-12{stroke-width:0.16px;}.cls-13{fill:#c4a72f;}</style></defs><title>1</title><g id="Calque_2" data-name="Calque 2"><g id="Calque_1-2" data-name="Calque 1"><path class="cls-1" d="M11.9,53.71S7.53,56.45,1.24,63.57c0,0,19.52,11.29,44.48-2.93l-7.43-7.41Z"/><path class="cls-2" d="M11.9,53.71S7.53,56.45,1.24,63.57c0,0,19.52,11.29,44.48-2.93l-7.43-7.41Z"/><path class="cls-1" d="M36.63,64.89c.16-2.47.31-4.94.47-7.4a18.41,18.41,0,0,1,.34-2.88c.06-.25.23-1.21.48-1.28s.52.24.63.29l.69.33a26.67,26.67,0,0,1,5,3l.14.11A6,6,0,0,1,46.61,60L44.84,61.1l-4.9-5.28q.09,3.82.16,7.65l-3.47,1.42"/><path class="cls-2" d="M36.63,64.89c.16-2.47.31-4.94.47-7.4a18.41,18.41,0,0,1,.34-2.88c.06-.25.23-1.21.48-1.28s.52.24.63.29l.69.33a26.67,26.67,0,0,1,5,3l.14.11A6,6,0,0,1,46.61,60L44.84,61.1l-4.9-5.28q.09,3.82.16,7.65Z"/><path class="cls-1" d="M8.92,66.27q-.24-4.52-.85-9l-6.5,6.54-.65-.3a18,18,0,0,1,1.52-2.93A16.78,16.78,0,0,1,4.58,58a14.08,14.08,0,0,1,6.09-3.61,1.73,1.73,0,0,1,.49,1.16c.55,3.84,1.1,7.68,1.43,11.55l-3.67-.79"/><path class="cls-2" d="M8.92,66.27q-.24-4.52-.85-9l-6.5,6.54-.65-.3a18,18,0,0,1,1.52-2.93A16.78,16.78,0,0,1,4.58,58a14.08,14.08,0,0,1,6.09-3.61,1.73,1.73,0,0,1,.49,1.16c.55,3.84,1.1,7.68,1.43,11.55Z"/><path class="cls-1" d="M12.55,54S8.19,56.72,1.9,63.84c0,0,19.51,11.29,44.47-2.93L39,53.5Z"/><path class="cls-1" d="M37.28,65.16l.48-7.4a17.29,17.29,0,0,1,.34-2.88c.06-.25.22-1.21.47-1.28s.52.24.64.29l.69.33a27.32,27.32,0,0,1,5,3l.13.11a6,6,0,0,1,2.23,2.91l-1.77,1.12L40.6,56.09l.15,7.65-3.47,1.42"/><path class="cls-1" d="M9.58,66.54c-.16-3-.45-6-.85-9L2.22,64.08l-.65-.3a19.72,19.72,0,0,1,1.52-2.93,16.78,16.78,0,0,1,2.14-2.62,14.08,14.08,0,0,1,6.09-3.61,1.68,1.68,0,0,1,.49,1.16c.55,3.84,1.11,7.68,1.43,11.55l-3.66-.79"/><path class="cls-3" d="M12.28,54.21S7.92,57,1.63,64.06c0,0,19.51,11.3,44.47-2.93l-7.42-7.4Z"/><path class="cls-2" d="M12.28,54.21S7.92,57,1.63,64.06c0,0,19.51,11.3,44.47-2.93l-7.42-7.4Z"/><path class="cls-4" d="M37,65.38l.48-7.4a17.3,17.3,0,0,1,.34-2.87c.06-.25.22-1.22.47-1.28s.52.24.64.29l.69.32a27.37,27.37,0,0,1,5,3l.13.11A5.85,5.85,0,0,1,47,60.48l-1.77,1.11-4.89-5.28L40.48,64,37,65.38"/><path class="cls-5" d="M37,65.38l.48-7.4a17.3,17.3,0,0,1,.34-2.87c.06-.25.22-1.22.47-1.28s.52.24.64.29l.69.32a27.37,27.37,0,0,1,5,3l.13.11A5.85,5.85,0,0,1,47,60.48l-1.77,1.11-4.89-5.28L40.48,64,37,65.38"/><path class="cls-6" d="M37,65.38l.48-7.4a17.3,17.3,0,0,1,.34-2.87c.06-.25.22-1.22.47-1.28s.52.24.64.29l.69.32a27.37,27.37,0,0,1,5,3l.13.11A5.85,5.85,0,0,1,47,60.48l-1.77,1.11-4.89-5.28L40.48,64Z"/><path class="cls-4" d="M9.31,66.77c-.16-3-.45-6-.85-9L2,64.31,1.3,64a20.16,20.16,0,0,1,1.52-2.92A15.9,15.9,0,0,1,5,58.46a13.89,13.89,0,0,1,6.09-3.61A1.65,1.65,0,0,1,11.54,56c.55,3.84,1.11,7.68,1.43,11.54l-3.66-.78"/><path class="cls-7" d="M9.31,66.77c-.16-3-.45-6-.85-9L2,64.31,1.3,64a20.16,20.16,0,0,1,1.52-2.92A15.9,15.9,0,0,1,5,58.46a13.89,13.89,0,0,1,6.09-3.61A1.65,1.65,0,0,1,11.54,56c.55,3.84,1.11,7.68,1.43,11.54Z"/><path class="cls-8" d="M43.32,29.59v0"/><path class="cls-2" d="M43.32,29.59v0Z"/><path class="cls-1" d="M3,36.8a5.54,5.54,0,0,0-.17,1,7,7,0,0,1-.36,1.09,16.3,16.3,0,0,1-1,2c-.11.19-.2.47,0,.61a.46.46,0,0,0,.38,0A5.32,5.32,0,0,0,3.4,41c.19-.11.39-.26.39-.47a9.1,9.1,0,0,1-.15,2.75c0,.19-.07.44.1.56a.5.5,0,0,0,.46,0c.62-.23,1.23-.49,1.83-.75.15.6,0,1.28.39,1.78A1.17,1.17,0,0,0,8.15,45c.16.85.32,1.7.47,2.55a1.21,1.21,0,0,0,.22.58.42.42,0,0,0,.55.1Q7.92,43.12,6.46,38.05a8,8,0,0,0-.88-.15,7.69,7.69,0,0,1-.9-.27,7.19,7.19,0,0,1-.86-.37A6,6,0,0,0,3,36.8"/><path class="cls-2" d="M3,36.8a5.54,5.54,0,0,0-.17,1,7,7,0,0,1-.36,1.09,16.3,16.3,0,0,1-1,2c-.11.19-.2.47,0,.61a.46.46,0,0,0,.38,0A5.32,5.32,0,0,0,3.4,41c.19-.11.39-.26.39-.47a9.1,9.1,0,0,1-.15,2.75c0,.19-.07.44.1.56a.5.5,0,0,0,.46,0c.62-.23,1.23-.49,1.83-.75.15.6,0,1.28.39,1.78A1.17,1.17,0,0,0,8.15,45c.16.85.32,1.7.47,2.55a1.21,1.21,0,0,0,.22.58.42.42,0,0,0,.55.1Q7.92,43.12,6.46,38.05a8,8,0,0,0-.88-.15,7.69,7.69,0,0,1-.9-.27,7.19,7.19,0,0,1-.86-.37A6,6,0,0,0,3,36.8Z"/><path class="cls-1" d="M41.51,43.48a.6.6,0,0,0,.13.28l.77,1.11c.18.25.47.53.74.39a.69.69,0,0,0,.25-.49c.11-.66.23-1.33.35-2l1.56.84c.19.1.42.2.6.08s.17-.33.18-.52c0-1.07,0-2.14,0-3.22,0,.14,1.25.6,1.4.64a.48.48,0,0,0,.35,0c.26-.1.22-.47.13-.73-.44-1.25-.87-2.5-1.3-3.74A4.08,4.08,0,0,1,43.4,37.6c-.61,1.88-1.23,3.75-1.85,5.63a.69.69,0,0,0,0,.25"/><path class="cls-2" d="M41.51,43.48a.6.6,0,0,0,.13.28l.77,1.11c.18.25.47.53.74.39a.69.69,0,0,0,.25-.49c.11-.66.23-1.33.35-2l1.56.84c.19.1.42.2.6.08s.17-.33.18-.52c0-1.07,0-2.14,0-3.22,0,.14,1.25.6,1.4.64a.48.48,0,0,0,.35,0c.26-.1.22-.47.13-.73-.44-1.25-.87-2.5-1.3-3.74A4.08,4.08,0,0,1,43.4,37.6c-.61,1.88-1.23,3.75-1.85,5.63A.69.69,0,0,0,41.51,43.48Z"/><path class="cls-1" d="M6.28,38.14C7.5,41.49,8.14,45,9.27,48.4s2.87,6.72,5.75,8.83A16.75,16.75,0,0,0,23.32,60a30.15,30.15,0,0,0,9.47-.6,7,7,0,0,0,3.62-1.69,8,8,0,0,0,1.64-3.3l5.32-16.87A4.61,4.61,0,0,0,48,35.14a6,6,0,0,0,0-5.36,2.75,2.75,0,0,0-1.07-1.26c-1.07-.59-2.48.21-3,1.32a6.81,6.81,0,0,0-.25,3.62Q41,21.76,38.39,10.06L16.8,13.35l-5.4.83-2.7.41c-.4.06-.51,0-.67.36a5.38,5.38,0,0,0-.24,1.33A68.62,68.62,0,0,0,6.54,26.87c0,.88,0,1.77,0,2.65s.24,1.7.24,2.53A7,7,0,0,0,6.4,29.6,2.47,2.47,0,0,0,4.59,28a2.69,2.69,0,0,0-2.17.91,5.28,5.28,0,0,0-1,5.76,6.1,6.1,0,0,0,4.83,3.44"/><path class="cls-2" d="M6.28,38.14C7.5,41.49,8.14,45,9.27,48.4s2.87,6.72,5.75,8.83A16.75,16.75,0,0,0,23.32,60a30.15,30.15,0,0,0,9.47-.6,7,7,0,0,0,3.62-1.69,8,8,0,0,0,1.64-3.3l5.32-16.87A4.61,4.61,0,0,0,48,35.14a6,6,0,0,0,0-5.36,2.75,2.75,0,0,0-1.07-1.26c-1.07-.59-2.48.21-3,1.32a6.81,6.81,0,0,0-.25,3.62Q41,21.76,38.39,10.06L16.8,13.35l-5.4.83-2.7.41c-.4.06-.51,0-.67.36a5.38,5.38,0,0,0-.24,1.33A68.62,68.62,0,0,0,6.54,26.87c0,.88,0,1.77,0,2.65s.24,1.7.24,2.53A7,7,0,0,0,6.4,29.6,2.47,2.47,0,0,0,4.59,28a2.69,2.69,0,0,0-2.17.91,5.28,5.28,0,0,0-1,5.76A6.1,6.1,0,0,0,6.28,38.14Z"/><path class="cls-1" d="M12.21,30.5a7.58,7.58,0,0,1,.32-3.06,4,4,0,0,1,2.29-2.77c2.24-.76,5.57,1,5.95,3.39A8.8,8.8,0,0,1,20,32.39c-.42,1.15-1,2.39-2.13,2.83a3.12,3.12,0,0,1-1.79.05,5.19,5.19,0,0,1-3.47-3.1,6.41,6.41,0,0,1-.43-1.67"/><path class="cls-2" d="M12.21,30.5a7.58,7.58,0,0,1,.32-3.06,4,4,0,0,1,2.29-2.77c2.24-.76,5.57,1,5.95,3.39A8.8,8.8,0,0,1,20,32.39c-.42,1.15-1,2.39-2.13,2.83a3.12,3.12,0,0,1-1.79.05,5.19,5.19,0,0,1-3.47-3.1A6.41,6.41,0,0,1,12.21,30.5Z"/><path class="cls-1" d="M2.83,28.58A35.17,35.17,0,0,1,5.54,14.7a27.25,27.25,0,0,1,6.82-10A16.43,16.43,0,0,1,23.06.12,26.44,26.44,0,0,1,29.4.67a22.27,22.27,0,0,1,6.89,2.47,20.42,20.42,0,0,1,8.57,11.08,40.7,40.7,0,0,1,1.83,14.11A2.64,2.64,0,0,0,44,30a7.73,7.73,0,0,0-.41,3.35,22.85,22.85,0,0,1-3.27-9.26A2.1,2.1,0,0,1,37.26,24a4.41,4.41,0,0,1-.86-3.3,4.48,4.48,0,0,1-5.67,1.69c-2.2-1.09-3-3.72-4.07-5.95a7.69,7.69,0,0,1-12.07,4.14,5.88,5.88,0,0,1-1.22,2.58,2.41,2.41,0,0,1-2.61.71c-1.11-.5-1.5-2-2.61-2.5a15.86,15.86,0,0,1,.41,6.14,15.81,15.81,0,0,1-2,5.95c.55-2.87-.42-5.06-1.71-5.4a2.31,2.31,0,0,0-2,.57"/><path class="cls-2" d="M2.83,28.58A35.17,35.17,0,0,1,5.54,14.7a27.25,27.25,0,0,1,6.82-10A16.43,16.43,0,0,1,23.06.12,26.44,26.44,0,0,1,29.4.67a22.27,22.27,0,0,1,6.89,2.47,20.42,20.42,0,0,1,8.57,11.08,40.7,40.7,0,0,1,1.83,14.11A2.64,2.64,0,0,0,44,30a7.73,7.73,0,0,0-.41,3.35,22.85,22.85,0,0,1-3.27-9.26A2.1,2.1,0,0,1,37.26,24a4.41,4.41,0,0,1-.86-3.3,4.48,4.48,0,0,1-5.67,1.69c-2.2-1.09-3-3.72-4.07-5.95a7.69,7.69,0,0,1-12.07,4.14,5.88,5.88,0,0,1-1.22,2.58,2.41,2.41,0,0,1-2.61.71c-1.11-.5-1.5-2-2.61-2.5a15.86,15.86,0,0,1,.41,6.14,15.81,15.81,0,0,1-2,5.95c.55-2.87-.42-5.06-1.71-5.4A2.31,2.31,0,0,0,2.83,28.58Z"/><path class="cls-1" d="M29.12,30.85a7.51,7.51,0,0,1,.32-3.05A4,4,0,0,1,31.73,25c2.24-.76,5.57,1,5.95,3.39a8.82,8.82,0,0,1-.74,4.33,4.36,4.36,0,0,1-2.13,2.82,3,3,0,0,1-1.79.06,5.22,5.22,0,0,1-3.47-3.1,6.49,6.49,0,0,1-.43-1.68"/><path class="cls-2" d="M29.12,30.85a7.51,7.51,0,0,1,.32-3.05A4,4,0,0,1,31.73,25c2.24-.76,5.57,1,5.95,3.39a8.82,8.82,0,0,1-.74,4.33,4.36,4.36,0,0,1-2.13,2.82,3,3,0,0,1-1.79.06,5.22,5.22,0,0,1-3.47-3.1A6.49,6.49,0,0,1,29.12,30.85Z"/><path class="cls-1" d="M17.3,29a.8.8,0,1,1-.8-.81.8.8,0,0,1,.8.81"/><path class="cls-2" d="M17.3,29a.8.8,0,1,1-.8-.81A.8.8,0,0,1,17.3,29Z"/><path class="cls-1" d="M34.48,29a.8.8,0,1,1-.8-.81.8.8,0,0,1,.8.81"/><path class="cls-2" d="M34.48,29a.8.8,0,1,1-.8-.81A.8.8,0,0,1,34.48,29Z"/><path class="cls-1" d="M20.83,34.66s-1,7.06,4,7.33c0,0,4.87-.67,4.81-5.06,0,0,0-2.18-.89-3"/><path class="cls-2" d="M20.83,34.66s-1,7.06,4,7.33c0,0,4.87-.67,4.81-5.06,0,0,0-2.18-.89-3"/><path class="cls-1" d="M21.38,53a4,4,0,0,0,5.16,0"/><path class="cls-2" d="M21.38,53a4,4,0,0,0,5.16,0"/><path class="cls-1" d="M15.51,47.5c-.65,0-.43-2.3-.31-2.62.39-1.13,1.21-1.41,2.35-1.46l14-.54c1.51-.05,3.27,0,4.16,1.22a2.22,2.22,0,0,1-1,3.29,4,4,0,0,1-1.19.12h-18"/><path class="cls-2" d="M15.51,47.5c-.65,0-.43-2.3-.31-2.62.39-1.13,1.21-1.41,2.35-1.46l14-.54c1.51-.05,3.27,0,4.16,1.22a2.22,2.22,0,0,1-1,3.29,4,4,0,0,1-1.19.12Z"/><path class="cls-1" d="M39.82,26.59a3.42,3.42,0,0,1,.69,1.51,3.58,3.58,0,0,1-.15,2.52.3.3,0,0,1-.13.16.34.34,0,0,1-.2,0,1.26,1.26,0,0,1-.67-.16,1.43,1.43,0,0,1-.48-1.5c.1-.48.29-.93.39-1.41a2.65,2.65,0,0,1,.55-1.16"/><path class="cls-2" d="M39.82,26.59a3.42,3.42,0,0,1,.69,1.51,3.58,3.58,0,0,1-.15,2.52.3.3,0,0,1-.13.16.34.34,0,0,1-.2,0,1.26,1.26,0,0,1-.67-.16,1.43,1.43,0,0,1-.48-1.5c.1-.48.29-.93.39-1.41A2.65,2.65,0,0,1,39.82,26.59Z"/><path class="cls-1" d="M13.85,21.19a9.67,9.67,0,0,1,2.28.07,12.25,12.25,0,0,1,2.3.56,16.3,16.3,0,0,0,2.13.85,3.15,3.15,0,0,0,2.94-.82"/><path class="cls-2" d="M13.85,21.19a9.67,9.67,0,0,1,2.28.07,12.25,12.25,0,0,1,2.3.56,16.3,16.3,0,0,0,2.13.85,3.15,3.15,0,0,0,2.94-.82"/><line class="cls-1" x1="32.1" y1="21.95" x2="38.81" y2="24.82"/><line class="cls-2" x1="32.1" y1="21.95" x2="38.81" y2="24.82"/><path class="cls-1" d="M3,34s-.67-3.28.61-3.71"/><path class="cls-2" d="M3,34s-.67-3.28.61-3.71"/><path class="cls-1" d="M46.47,30.41a3.49,3.49,0,0,1,0,3.48"/><path class="cls-2" d="M46.47,30.41a3.49,3.49,0,0,1,0,3.48"/><path class="cls-1" d="M2.11,37a5.54,5.54,0,0,0-.17,1,8.77,8.77,0,0,1-.35,1.1,20.42,20.42,0,0,1-1,2c-.11.19-.21.47,0,.61a.43.43,0,0,0,.37,0,5.48,5.48,0,0,0,1.6-.62c.18-.11.38-.26.39-.47a9.41,9.41,0,0,1-.16,2.75c0,.2-.07.45.1.56s.31,0,.46,0c.62-.24,1.23-.49,1.83-.76.15.6,0,1.28.4,1.79a1.18,1.18,0,0,0,1.73.12c.15.85.31,1.7.47,2.55a1.27,1.27,0,0,0,.21.58.41.41,0,0,0,.55.1Q7,43.31,5.56,38.24s-.79-.13-.88-.15a7,7,0,0,1-.89-.27,6.55,6.55,0,0,1-.86-.37A6.08,6.08,0,0,0,2.11,37"/><path class="cls-2" d="M2.11,37a5.54,5.54,0,0,0-.17,1,8.77,8.77,0,0,1-.35,1.1,20.42,20.42,0,0,1-1,2c-.11.19-.21.47,0,.61a.43.43,0,0,0,.37,0,5.48,5.48,0,0,0,1.6-.62c.18-.11.38-.26.39-.47a9.41,9.41,0,0,1-.16,2.75c0,.2-.07.45.1.56s.31,0,.46,0c.62-.24,1.23-.49,1.83-.76.15.6,0,1.28.4,1.79a1.18,1.18,0,0,0,1.73.12c.15.85.31,1.7.47,2.55a1.27,1.27,0,0,0,.21.58.41.41,0,0,0,.55.1Q7,43.31,5.56,38.24s-.79-.13-.88-.15a7,7,0,0,1-.89-.27,6.55,6.55,0,0,1-.86-.37A6.08,6.08,0,0,0,2.11,37Z"/><path class="cls-1" d="M40.61,43.67a.56.56,0,0,0,.13.28l.77,1.11c.18.25.47.53.74.39A.62.62,0,0,0,42.5,45c.12-.66.23-1.33.35-2l1.56.84c.19.1.43.2.6.08s.18-.32.18-.52c0-1.07,0-2.14,0-3.22,0,.14,1.25.6,1.4.65a.55.55,0,0,0,.36,0c.25-.1.21-.47.12-.73-.43-1.25-.87-2.49-1.3-3.74a4.11,4.11,0,0,1-3.27,1.45l-1.86,5.62a.69.69,0,0,0,0,.25"/><path class="cls-2" d="M40.61,43.67a.56.56,0,0,0,.13.28l.77,1.11c.18.25.47.53.74.39A.62.62,0,0,0,42.5,45c.12-.66.23-1.33.35-2l1.56.84c.19.1.43.2.6.08s.18-.32.18-.52c0-1.07,0-2.14,0-3.22,0,.14,1.25.6,1.4.65a.55.55,0,0,0,.36,0c.25-.1.21-.47.12-.73-.43-1.25-.87-2.49-1.3-3.74a4.11,4.11,0,0,1-3.27,1.45l-1.86,5.62A.69.69,0,0,0,40.61,43.67Z"/><path class="cls-1" d="M5.38,38.33c1.23,3.35,1.86,6.89,3,10.27s2.87,6.71,5.74,8.82a16.78,16.78,0,0,0,8.3,2.79,30.15,30.15,0,0,0,9.47-.6,7.06,7.06,0,0,0,3.63-1.69,8.2,8.2,0,0,0,1.64-3.3l5.31-16.87a4.58,4.58,0,0,0,4.61-2.42A6,6,0,0,0,47,30,2.79,2.79,0,0,0,46,28.71,2.35,2.35,0,0,0,43,30a6.81,6.81,0,0,0-.25,3.62Q40.11,22,37.49,10.25L15.9,13.54l-5.4.83-2.7.41c-.4.06-.5,0-.67.36a5.38,5.38,0,0,0-.24,1.33A71.16,71.16,0,0,0,5.64,27.06c0,.88,0,1.77,0,2.65s.25,1.7.25,2.54a7.52,7.52,0,0,0-.42-2.46A2.51,2.51,0,0,0,3.7,28.22a2.7,2.7,0,0,0-2.18.91,5.3,5.3,0,0,0-1,5.76,6.11,6.11,0,0,0,4.83,3.44"/><path class="cls-2" d="M5.38,38.33c1.23,3.35,1.86,6.89,3,10.27s2.87,6.71,5.74,8.82a16.78,16.78,0,0,0,8.3,2.79,30.15,30.15,0,0,0,9.47-.6,7.06,7.06,0,0,0,3.63-1.69,8.2,8.2,0,0,0,1.64-3.3l5.31-16.87a4.58,4.58,0,0,0,4.61-2.42A6,6,0,0,0,47,30,2.79,2.79,0,0,0,46,28.71,2.35,2.35,0,0,0,43,30a6.81,6.81,0,0,0-.25,3.62Q40.11,22,37.49,10.25L15.9,13.54l-5.4.83-2.7.41c-.4.06-.5,0-.67.36a5.38,5.38,0,0,0-.24,1.33A71.16,71.16,0,0,0,5.64,27.06c0,.88,0,1.77,0,2.65s.25,1.7.25,2.54a7.52,7.52,0,0,0-.42-2.46A2.51,2.51,0,0,0,3.7,28.22a2.7,2.7,0,0,0-2.18.91,5.3,5.3,0,0,0-1,5.76A6.11,6.11,0,0,0,5.38,38.33Z"/><path class="cls-1" d="M11.32,30.69a7.34,7.34,0,0,1,.31-3.05,4,4,0,0,1,2.29-2.78c2.24-.76,5.57,1,6,3.39a8.79,8.79,0,0,1-.73,4.33A4.37,4.37,0,0,1,17,35.41a3,3,0,0,1-1.79.05,5.24,5.24,0,0,1-3.47-3.1,6,6,0,0,1-.42-1.67"/><path class="cls-2" d="M11.32,30.69a7.34,7.34,0,0,1,.31-3.05,4,4,0,0,1,2.29-2.78c2.24-.76,5.57,1,6,3.39a8.79,8.79,0,0,1-.73,4.33A4.37,4.37,0,0,1,17,35.41a3,3,0,0,1-1.79.05,5.24,5.24,0,0,1-3.47-3.1A6,6,0,0,1,11.32,30.69Z"/><path class="cls-1" d="M1.94,28.77A35,35,0,0,1,4.65,14.89a27.08,27.08,0,0,1,6.81-10A16.43,16.43,0,0,1,22.17.31a26.49,26.49,0,0,1,6.34.55A22.46,22.46,0,0,1,35.4,3.33,20.45,20.45,0,0,1,44,14.41a40.7,40.7,0,0,1,1.83,14.11,2.63,2.63,0,0,0-2.67,1.67,7.58,7.58,0,0,0-.42,3.35,23,23,0,0,1-3.27-9.26,2.1,2.1,0,0,1-3.07-.14,4.45,4.45,0,0,1-.86-3.3,4.48,4.48,0,0,1-5.67,1.69c-2.2-1.09-3-3.72-4.06-6a7.7,7.7,0,0,1-12.08,4.14,5.77,5.77,0,0,1-1.22,2.58,2.39,2.39,0,0,1-2.6.71c-1.12-.5-1.51-2-2.62-2.5a15.82,15.82,0,0,1,.42,6.14,16,16,0,0,1-2,6c.55-2.87-.41-5.06-1.71-5.4a2.29,2.29,0,0,0-2,.57"/><path class="cls-2" d="M1.94,28.77A35,35,0,0,1,4.65,14.89a27.08,27.08,0,0,1,6.81-10A16.43,16.43,0,0,1,22.17.31a26.49,26.49,0,0,1,6.34.55A22.46,22.46,0,0,1,35.4,3.33,20.45,20.45,0,0,1,44,14.41a40.7,40.7,0,0,1,1.83,14.11,2.63,2.63,0,0,0-2.67,1.67,7.58,7.58,0,0,0-.42,3.35,23,23,0,0,1-3.27-9.26,2.1,2.1,0,0,1-3.07-.14,4.45,4.45,0,0,1-.86-3.3,4.48,4.48,0,0,1-5.67,1.69c-2.2-1.09-3-3.72-4.06-6a7.7,7.7,0,0,1-12.08,4.14,5.77,5.77,0,0,1-1.22,2.58,2.39,2.39,0,0,1-2.6.71c-1.12-.5-1.51-2-2.62-2.5a15.82,15.82,0,0,1,.42,6.14,16,16,0,0,1-2,6c.55-2.87-.41-5.06-1.71-5.4A2.29,2.29,0,0,0,1.94,28.77Z"/><path class="cls-1" d="M28.23,31A7.34,7.34,0,0,1,28.54,28a4,4,0,0,1,2.29-2.77c2.24-.76,5.57,1,6,3.39a8.81,8.81,0,0,1-.73,4.33c-.43,1.14-1,2.38-2.14,2.82a3,3,0,0,1-1.79.06,5.19,5.19,0,0,1-3.47-3.1A6.09,6.09,0,0,1,28.23,31"/><path class="cls-2" d="M28.23,31A7.34,7.34,0,0,1,28.54,28a4,4,0,0,1,2.29-2.77c2.24-.76,5.57,1,6,3.39a8.81,8.81,0,0,1-.73,4.33c-.43,1.14-1,2.38-2.14,2.82a3,3,0,0,1-1.79.06,5.19,5.19,0,0,1-3.47-3.1A6.09,6.09,0,0,1,28.23,31Z"/><path class="cls-1" d="M16.4,29.16a.8.8,0,1,1-.8-.8.8.8,0,0,1,.8.8"/><path class="cls-2" d="M16.4,29.16a.8.8,0,1,1-.8-.8A.8.8,0,0,1,16.4,29.16Z"/><path class="cls-1" d="M33.58,29.16a.8.8,0,1,1-.8-.8.8.8,0,0,1,.8.8"/><path class="cls-2" d="M33.58,29.16a.8.8,0,1,1-.8-.8A.8.8,0,0,1,33.58,29.16Z"/><path class="cls-1" d="M19.93,34.85s-1,7.06,4,7.33c0,0,4.87-.67,4.82-5.06,0,0,0-2.18-.9-3"/><path class="cls-2" d="M19.93,34.85s-1,7.06,4,7.33c0,0,4.87-.67,4.82-5.06,0,0,0-2.18-.9-3"/><path class="cls-1" d="M20.49,53.21a4,4,0,0,0,5.15,0"/><path class="cls-2" d="M20.49,53.21a4,4,0,0,0,5.15,0"/><path class="cls-1" d="M14.61,47.69c-.65,0-.42-2.3-.31-2.62.39-1.13,1.22-1.41,2.35-1.45l14-.55c1.51,0,3.27,0,4.16,1.22a2.22,2.22,0,0,1-1,3.29,4,4,0,0,1-1.19.12h-18"/><path class="cls-2" d="M14.61,47.69c-.65,0-.42-2.3-.31-2.62.39-1.13,1.22-1.41,2.35-1.45l14-.55c1.51,0,3.27,0,4.16,1.22a2.22,2.22,0,0,1-1,3.29,4,4,0,0,1-1.19.12Z"/><path class="cls-1" d="M38.92,26.78a3.42,3.42,0,0,1,.69,1.51,3.6,3.6,0,0,1-.15,2.53.4.4,0,0,1-.13.16.44.44,0,0,1-.2,0,1.3,1.3,0,0,1-.67-.16,1.4,1.4,0,0,1-.47-1.5c.09-.48.28-.93.38-1.4a2.74,2.74,0,0,1,.55-1.17"/><path class="cls-2" d="M38.92,26.78a3.42,3.42,0,0,1,.69,1.51,3.6,3.6,0,0,1-.15,2.53.4.4,0,0,1-.13.16.44.44,0,0,1-.2,0,1.3,1.3,0,0,1-.67-.16,1.4,1.4,0,0,1-.47-1.5c.09-.48.28-.93.38-1.4A2.74,2.74,0,0,1,38.92,26.78Z"/><path class="cls-1" d="M13,21.38a9.67,9.67,0,0,1,2.28.07,12.25,12.25,0,0,1,2.3.56,16.3,16.3,0,0,0,2.13.85A3.17,3.17,0,0,0,22.61,22"/><path class="cls-2" d="M13,21.38a9.67,9.67,0,0,1,2.28.07,12.25,12.25,0,0,1,2.3.56,16.3,16.3,0,0,0,2.13.85A3.17,3.17,0,0,0,22.61,22"/><line class="cls-1" x1="31.21" y1="22.14" x2="37.91" y2="25.01"/><line class="cls-2" x1="31.21" y1="22.14" x2="37.91" y2="25.01"/><path class="cls-1" d="M2.12,34.2s-.67-3.29.6-3.72"/><path class="cls-2" d="M2.12,34.2s-.67-3.29.6-3.72"/><path class="cls-1" d="M45.57,30.6a3.49,3.49,0,0,1,0,3.48"/><path class="cls-2" d="M45.57,30.6a3.49,3.49,0,0,1,0,3.48"/><path class="cls-9" d="M2.62,37a7.9,7.9,0,0,0-.17,1,7.39,7.39,0,0,1-.35,1.1,18.48,18.48,0,0,1-1,2c-.11.19-.21.47,0,.61a.45.45,0,0,0,.38,0A5.32,5.32,0,0,0,3,41.18c.18-.11.38-.26.39-.47a9.77,9.77,0,0,1-.15,2.75c0,.2-.07.45.09.56a.53.53,0,0,0,.46,0c.62-.24,1.23-.49,1.84-.76.14.6,0,1.28.39,1.79a1.18,1.18,0,0,0,1.73.12c.16.85.31,1.7.47,2.55a1.27,1.27,0,0,0,.21.58.41.41,0,0,0,.55.1Q7.54,43.31,6.07,38.24s-.79-.13-.88-.15a7,7,0,0,1-.89-.27,6.55,6.55,0,0,1-.86-.37A6.08,6.08,0,0,0,2.62,37"/><path class="cls-2" d="M2.62,37a7.9,7.9,0,0,0-.17,1,7.39,7.39,0,0,1-.35,1.1,18.48,18.48,0,0,1-1,2c-.11.19-.21.47,0,.61a.45.45,0,0,0,.38,0A5.32,5.32,0,0,0,3,41.18c.18-.11.38-.26.39-.47a9.77,9.77,0,0,1-.15,2.75c0,.2-.07.45.09.56a.53.53,0,0,0,.46,0c.62-.24,1.23-.49,1.84-.76.14.6,0,1.28.39,1.79a1.18,1.18,0,0,0,1.73.12c.16.85.31,1.7.47,2.55a1.27,1.27,0,0,0,.21.58.41.41,0,0,0,.55.1Q7.54,43.31,6.07,38.24s-.79-.13-.88-.15a7,7,0,0,1-.89-.27,6.55,6.55,0,0,1-.86-.37A6.08,6.08,0,0,0,2.62,37Z"/><path class="cls-9" d="M41.12,43.67a.57.57,0,0,0,.14.28L42,45.06c.17.25.46.53.73.39A.62.62,0,0,0,43,45c.12-.66.24-1.33.35-2l1.57.84c.18.1.42.2.59.08s.18-.32.18-.52c0-1.07,0-2.14,0-3.22,0,.14,1.26.6,1.4.65a.56.56,0,0,0,.36,0c.26-.1.21-.47.12-.73L46.3,36.35A4.13,4.13,0,0,1,43,37.8q-.93,2.81-1.85,5.62a.53.53,0,0,0-.05.25"/><path class="cls-2" d="M41.12,43.67a.57.57,0,0,0,.14.28L42,45.06c.17.25.46.53.73.39A.62.62,0,0,0,43,45c.12-.66.24-1.33.35-2l1.57.84c.18.1.42.2.59.08s.18-.32.18-.52c0-1.07,0-2.14,0-3.22,0,.14,1.26.6,1.4.65a.56.56,0,0,0,.36,0c.26-.1.21-.47.12-.73L46.3,36.35A4.13,4.13,0,0,1,43,37.8q-.93,2.81-1.85,5.62A.53.53,0,0,0,41.12,43.67Z"/><path class="cls-3" d="M5.9,38.33c1.22,3.35,1.85,6.89,3,10.27s2.87,6.71,5.74,8.82a16.82,16.82,0,0,0,8.31,2.79,30.08,30.08,0,0,0,9.46-.6A7.06,7.06,0,0,0,36,57.92a8.08,8.08,0,0,0,1.64-3.3L43,37.75a4.58,4.58,0,0,0,4.61-2.42,6,6,0,0,0,0-5.36,2.73,2.73,0,0,0-1.06-1.26,2.34,2.34,0,0,0-3,1.32,6.81,6.81,0,0,0-.26,3.62Q40.62,22,38,10.25L16.41,13.54l-5.4.83-2.69.41c-.41.06-.51,0-.68.36a5.38,5.38,0,0,0-.24,1.33A71.16,71.16,0,0,0,6.15,27.06c0,.88,0,1.77,0,2.65s.25,1.7.25,2.54A7.52,7.52,0,0,0,6,29.79a2.49,2.49,0,0,0-1.81-1.57A2.67,2.67,0,0,0,2,29.13a5.31,5.31,0,0,0-1,5.76A6.11,6.11,0,0,0,5.9,38.33"/><path class="cls-5" d="M5.9,38.33c1.22,3.35,1.85,6.89,3,10.27s2.87,6.71,5.74,8.82a16.82,16.82,0,0,0,8.31,2.79,30.08,30.08,0,0,0,9.46-.6A7.06,7.06,0,0,0,36,57.92a8.08,8.08,0,0,0,1.64-3.3L43,37.75a4.58,4.58,0,0,0,4.61-2.42,6,6,0,0,0,0-5.36,2.73,2.73,0,0,0-1.06-1.26,2.34,2.34,0,0,0-3,1.32,6.81,6.81,0,0,0-.26,3.62Q40.62,22,38,10.25L16.41,13.54l-5.4.83-2.69.41c-.41.06-.51,0-.68.36a5.38,5.38,0,0,0-.24,1.33A71.16,71.16,0,0,0,6.15,27.06c0,.88,0,1.77,0,2.65s.25,1.7.25,2.54A7.52,7.52,0,0,0,6,29.79a2.49,2.49,0,0,0-1.81-1.57A2.67,2.67,0,0,0,2,29.13a5.31,5.31,0,0,0-1,5.76A6.11,6.11,0,0,0,5.9,38.33Z"/><path class="cls-10" d="M11.83,30.69a7.34,7.34,0,0,1,.31-3.05,4.1,4.1,0,0,1,2.29-2.78c2.24-.76,5.57,1,5.95,3.39a8.68,8.68,0,0,1-.73,4.33,4.39,4.39,0,0,1-2.13,2.83,3,3,0,0,1-1.8.05,5.24,5.24,0,0,1-3.47-3.1,6,6,0,0,1-.42-1.67"/><path class="cls-7" d="M11.83,30.69a7.34,7.34,0,0,1,.31-3.05,4.1,4.1,0,0,1,2.29-2.78c2.24-.76,5.57,1,5.95,3.39a8.68,8.68,0,0,1-.73,4.33,4.39,4.39,0,0,1-2.13,2.83,3,3,0,0,1-1.8.05,5.24,5.24,0,0,1-3.47-3.1,6,6,0,0,1-.42-1.67"/><path class="cls-2" d="M11.83,30.69a7.34,7.34,0,0,1,.31-3.05,4.1,4.1,0,0,1,2.29-2.78c2.24-.76,5.57,1,5.95,3.39a8.68,8.68,0,0,1-.73,4.33,4.39,4.39,0,0,1-2.13,2.83,3,3,0,0,1-1.8.05,5.24,5.24,0,0,1-3.47-3.1A6,6,0,0,1,11.83,30.69Z"/><path class="cls-9" d="M2.45,28.77A35.17,35.17,0,0,1,5.16,14.89,27.2,27.2,0,0,1,12,4.84,16.45,16.45,0,0,1,22.68.31,26.49,26.49,0,0,1,29,.86a22.46,22.46,0,0,1,6.89,2.47,20.51,20.51,0,0,1,8.57,11.08A40.69,40.69,0,0,1,46.3,28.52a2.63,2.63,0,0,0-2.67,1.67,7.89,7.89,0,0,0-.42,3.35,23,23,0,0,1-3.27-9.26,2.1,2.1,0,0,1-3.07-.14,4.45,4.45,0,0,1-.86-3.3,4.48,4.48,0,0,1-5.67,1.69c-2.2-1.09-3-3.72-4.06-6a7.7,7.7,0,0,1-12.07,4.14A6,6,0,0,1,13,23.3a2.41,2.41,0,0,1-2.61.71c-1.11-.5-1.5-2-2.62-2.5a15.63,15.63,0,0,1,.42,6.14,15.78,15.78,0,0,1-2,6c.56-2.87-.41-5.06-1.7-5.4a2.31,2.31,0,0,0-2,.57"/><path class="cls-5" d="M2.45,28.77A35.17,35.17,0,0,1,5.16,14.89,27.2,27.2,0,0,1,12,4.84,16.45,16.45,0,0,1,22.68.31,26.49,26.49,0,0,1,29,.86a22.46,22.46,0,0,1,6.89,2.47,20.51,20.51,0,0,1,8.57,11.08A40.69,40.69,0,0,1,46.3,28.52a2.63,2.63,0,0,0-2.67,1.67,7.89,7.89,0,0,0-.42,3.35,23,23,0,0,1-3.27-9.26,2.1,2.1,0,0,1-3.07-.14,4.45,4.45,0,0,1-.86-3.3,4.48,4.48,0,0,1-5.67,1.69c-2.2-1.09-3-3.72-4.06-6a7.7,7.7,0,0,1-12.07,4.14A6,6,0,0,1,13,23.3a2.41,2.41,0,0,1-2.61.71c-1.11-.5-1.5-2-2.62-2.5a15.63,15.63,0,0,1,.42,6.14,15.78,15.78,0,0,1-2,6c.56-2.87-.41-5.06-1.7-5.4A2.31,2.31,0,0,0,2.45,28.77Z"/><path class="cls-10" d="M28.74,31A7.34,7.34,0,0,1,29.05,28a4.08,4.08,0,0,1,2.29-2.77c2.24-.76,5.57,1,5.95,3.39a8.7,8.7,0,0,1-.73,4.33,4.39,4.39,0,0,1-2.13,2.82,3.07,3.07,0,0,1-1.8.06,5.24,5.24,0,0,1-3.47-3.1A6.09,6.09,0,0,1,28.74,31"/><path class="cls-7" d="M28.74,31A7.34,7.34,0,0,1,29.05,28a4.08,4.08,0,0,1,2.29-2.77c2.24-.76,5.57,1,5.95,3.39a8.7,8.7,0,0,1-.73,4.33,4.39,4.39,0,0,1-2.13,2.82,3.07,3.07,0,0,1-1.8.06,5.24,5.24,0,0,1-3.47-3.1A6.09,6.09,0,0,1,28.74,31"/><path class="cls-2" d="M28.74,31A7.34,7.34,0,0,1,29.05,28a4.08,4.08,0,0,1,2.29-2.77c2.24-.76,5.57,1,5.95,3.39a8.7,8.7,0,0,1-.73,4.33,4.39,4.39,0,0,1-2.13,2.82,3.07,3.07,0,0,1-1.8.06,5.24,5.24,0,0,1-3.47-3.1A6.09,6.09,0,0,1,28.74,31Z"/><path class="cls-11" d="M16.92,29.16a.8.8,0,0,1-1.6,0,.8.8,0,0,1,1.6,0"/><path class="cls-12" d="M16.92,29.16a.8.8,0,0,1-1.6,0,.8.8,0,0,1,1.6,0Z"/><path class="cls-11" d="M34.1,29.16a.8.8,0,1,1-.8-.8.8.8,0,0,1,.8.8"/><path class="cls-12" d="M34.1,29.16a.8.8,0,1,1-.8-.8A.8.8,0,0,1,34.1,29.16Z"/><path class="cls-5" d="M20.45,34.85s-1,7.06,3.95,7.33c0,0,4.87-.67,4.82-5.06,0,0,0-2.18-.9-3"/><path class="cls-5" d="M21,53.21a4,4,0,0,0,5.15,0"/><path class="cls-13" d="M15.12,47.69c-.65,0-.42-2.3-.31-2.62.39-1.13,1.22-1.41,2.35-1.45l14-.55c1.5,0,3.26,0,4.15,1.22a2.22,2.22,0,0,1-1,3.29,4,4,0,0,1-1.19.12h-18"/><path class="cls-5" d="M15.12,47.69c-.65,0-.42-2.3-.31-2.62.39-1.13,1.22-1.41,2.35-1.45l14-.55c1.5,0,3.26,0,4.15,1.22a2.22,2.22,0,0,1-1,3.29,4,4,0,0,1-1.19.12h-18"/><path class="cls-2" d="M15.12,47.69c-.65,0-.42-2.3-.31-2.62.39-1.13,1.22-1.41,2.35-1.45l14-.55c1.5,0,3.26,0,4.15,1.22a2.22,2.22,0,0,1-1,3.29,4,4,0,0,1-1.19.12Z"/><path class="cls-4" d="M39.44,26.78a3.52,3.52,0,0,1,.68,1.51A3.66,3.66,0,0,1,40,30.82a.51.51,0,0,1-.13.16.49.49,0,0,1-.21,0,1.3,1.3,0,0,1-.67-.16,1.4,1.4,0,0,1-.47-1.5c.09-.48.29-.93.39-1.4a2.53,2.53,0,0,1,.55-1.17"/><path class="cls-7" d="M39.44,26.78a3.52,3.52,0,0,1,.68,1.51A3.66,3.66,0,0,1,40,30.82a.51.51,0,0,1-.13.16.49.49,0,0,1-.21,0,1.3,1.3,0,0,1-.67-.16,1.4,1.4,0,0,1-.47-1.5c.09-.48.29-.93.39-1.4A2.53,2.53,0,0,1,39.44,26.78Z"/><path class="cls-7" d="M13.46,21.38a9.66,9.66,0,0,1,2.28.07A11.88,11.88,0,0,1,18,22a17.5,17.5,0,0,0,2.13.85A3.16,3.16,0,0,0,23.12,22"/><line class="cls-7" x1="31.72" y1="22.14" x2="38.42" y2="25.01"/><path class="cls-5" d="M2.63,34.2s-.67-3.29.61-3.72"/><path class="cls-5" d="M46.08,30.6a3.46,3.46,0,0,1,0,3.48"/></g></g></svg>