<svg version="1.1" id="Calque_1" xmlns="http://www.w3.org/2000/svg" x="0" y="0" viewBox="0 0 75.9 75.9" xml:space="preserve"><style>.st0{fill:#fff}</style><circle class="st0" cx="38" cy="38" r="38"/><path d="M20.1 45.9V30.4c0-.1.1-.2.1-.3.8-5.7 5.4-9.8 11.2-9.8h13.4c6.2 0 11.2 5 11.2 11.2V45c0 5-3.4 9.4-8.2 10.8-.6.2-1.3.3-1.9.4H30.4c-.1 0-.2-.1-.3-.1-4.5-.6-8.2-3.8-9.4-8.1-.4-.8-.5-1.5-.6-2.1zm32.4-7.7v-6.8c0-4.4-3.5-7.9-7.9-7.9H31.3c-4.4 0-7.9 3.5-7.9 7.9v13.3c0 4.4 3.5 7.9 7.9 7.9h13.3c.5 0 1.1 0 1.6-.1 3.7-.8 6.3-3.9 6.4-7.7 0-2.2-.1-4.4-.1-6.6z"/><path class="st0" d="M45.7 56c.6-.1 1.3-.2 1.9-.4 4.9-1.3 8.2-5.7 8.2-10.8V31.3c0-6.2-5-11.2-11.2-11.2H31.2c-5.7 0-10.4 4.1-11.2 9.8 0 .1-.1.2-.1.3V19.9h35.9v35.9c-3.2.2-6.6.2-10.1.2zM20.1 45.9c.1.6.2 1.3.4 1.9 1.2 4.4 4.9 7.6 9.4 8.1.1 0 .2.1.3.1H20c.1-3.4.1-6.8.1-10.1z"/><path class="st0" d="M52.5 38.2v6.7c0 3.8-2.6 7-6.4 7.7-.5.1-1 .1-1.6.1H31.2c-4.4 0-7.9-3.5-7.9-7.9V31.5c0-4.4 3.5-7.9 7.9-7.9h13.3c4.4 0 7.9 3.4 7.9 7.9.2 2.2.1 4.4.1 6.7zm-14.5-9c-4.8-.2-8.9 4-8.9 8.9s4.1 9 8.9 9c4.9 0 9-4.1 9-8.9-.1-4.9-4.2-9.2-9-9zm10.8-.7c0-.7-.5-1.1-1.1-1.1-.7 0-1.2.4-1.2 1.2 0 .7.4 1.2 1.2 1.1.6-.1 1.1-.5 1.1-1.2z"/><path d="M38 29.2c4.8-.2 9 4.1 9 8.9S42.9 47 38 47c-4.8 0-8.9-4.1-8.9-9-.1-4.8 4.1-9 8.9-8.8zm-.1 14.5c3.1 0 5.6-2.4 5.6-5.5s-2.4-5.6-5.5-5.7c-3.1 0-5.6 2.4-5.7 5.6.1 3.1 2.5 5.6 5.6 5.6zm10.9-15.2c0 .7-.4 1.2-1.1 1.2-.7 0-1.2-.4-1.2-1.1s.4-1.2 1.2-1.2c.6-.1 1.1.4 1.1 1.1z"/><path class="st0" d="M37.9 43.7c-3.1 0-5.6-2.5-5.5-5.6 0-3.1 2.6-5.6 5.7-5.6s5.6 2.6 5.5 5.7c-.1 3.1-2.6 5.5-5.7 5.5z"/></svg>