<svg xmlns="http://www.w3.org/2000/svg" viewBox="0 0 148.79 129.11"><defs><style>.cls-1{fill:#fdb835;}.cls-14,.cls-2,.cls-7,.cls-9{fill:none;stroke-miterlimit:10;}.cls-14,.cls-2,.cls-7{stroke:#231f20;}.cls-2{stroke-width:0.47px;}.cls-3{fill:#f6f6c9;}.cls-4{fill:#414042;}.cls-5{fill:#fdd32a;}.cls-6{fill:#ffc42c;}.cls-7,.cls-9{stroke-width:0.2px;}.cls-8{fill:#eac847;}.cls-9{stroke:#000;}.cls-10{fill:#ffcd28;}.cls-11{fill:#cfab2d;}.cls-12{fill:#efde74;}.cls-13{fill:#231f20;}.cls-14{stroke-width:0.16px;}.cls-15{fill:#bba33d;}</style></defs><title>piece</title><g id="Calque_2" data-name="Calque 2"><g id="Calque_1-2" data-name="Calque 1"><path class="cls-1" d="M148.27,56.41A73.67,73.67,0,0,1,146.55,80c-6.28,25.85-37.5,42.6-61.69,47.39a90.21,90.21,0,0,1-39.09-1.5c-14.6-3.77-28.19-11.73-36.62-24.51C4.28,94-1,81.46,1,72.55H1L148.27,56.41"/><path class="cls-2" d="M148.27,56.41A73.67,73.67,0,0,1,146.55,80c-6.28,25.85-37.5,42.6-61.69,47.39a90.21,90.21,0,0,1-39.09-1.5c-14.6-3.77-28.19-11.73-36.62-24.51C4.28,94-1,81.46,1,72.55H1L148.27,56.41"/><path class="cls-3" d="M57.8,121.57C14.58,115.1-19.67,71.26,13.86,32,27,16.62,46.8,8,67,4.82,85.14,2,104.6,3.37,120.74,12.23S149,38.29,148.27,56.41c-.41,10.52-4.94,20.52-11,29.18-14.78,21.25-39.68,35.75-65.91,36.75a73.21,73.21,0,0,1-13.59-.77"/><path class="cls-2" d="M57.8,121.57C14.58,115.1-19.67,71.26,13.86,32,27,16.62,46.8,8,67,4.82,85.14,2,104.6,3.37,120.74,12.23S149,38.29,148.27,56.41c-.41,10.52-4.94,20.52-11,29.18-14.78,21.25-39.68,35.75-65.91,36.75A73.21,73.21,0,0,1,57.8,121.57Z"/><path class="cls-4" d="M58.1,118.78c-42.47-6.32-76-50-42.9-89.41C28.12,14,47.66,5.3,67.48,2.07,85.36-.85,104.49.5,120.33,9.3s27.67,26,26.91,44.06c-.43,10.52-4.92,20.53-10.87,29.2-14.6,21.29-39.13,35.86-64.92,36.94a70.65,70.65,0,0,1-13.35-.72"/><path class="cls-4" d="M56.53,118.34c-42.46-6.33-76-50-42.89-89.41C26.56,13.56,46.1,4.86,65.92,1.63c17.88-2.92,37-1.57,52.85,7.23s27.66,26,26.91,44.06c-.44,10.51-4.92,20.52-10.88,29.2C120.2,103.4,95.68,118,69.89,119.06a71.59,71.59,0,0,1-13.36-.72"/><path class="cls-2" d="M56.53,118.34c-42.46-6.33-76-50-42.89-89.41C26.56,13.56,46.1,4.86,65.92,1.63c17.88-2.92,37-1.57,52.85,7.23s27.66,26,26.91,44.06c-.44,10.51-4.92,20.52-10.88,29.2C120.2,103.4,95.68,118,69.89,119.06A71.59,71.59,0,0,1,56.53,118.34Z"/><path class="cls-5" d="M57.21,118.34c-42.46-6.33-76-50-42.89-89.41C27.23,13.56,46.77,4.86,66.59,1.63c17.89-2.92,37-1.57,52.86,7.23s27.66,26,26.91,44.06c-.44,10.51-4.92,20.52-10.88,29.2C120.88,103.4,96.36,118,70.57,119.06a71.55,71.55,0,0,1-13.36-.72"/><path class="cls-2" d="M57.21,118.34c-42.46-6.33-76-50-42.89-89.41C27.23,13.56,46.77,4.86,66.59,1.63c17.89-2.92,37-1.57,52.86,7.23s27.66,26,26.91,44.06c-.44,10.51-4.92,20.52-10.88,29.2C120.88,103.4,96.36,118,70.57,119.06A71.55,71.55,0,0,1,57.21,118.34Z"/><path class="cls-4" d="M60.26,103.26c-32.72-4.87-58.55-38.54-33-68.89,9.95-11.84,25-18.54,40.28-21,13.78-2.25,28.52-1.21,40.72,5.57s21.32,20,20.74,34c-.34,8.1-3.8,15.81-8.38,22.5-11.25,16.4-30.15,27.62-50,28.45a54.21,54.21,0,0,1-10.29-.55"/><path class="cls-4" d="M61.87,104.72c-32.72-4.87-58.55-38.54-33-68.89,10-11.84,25-18.54,40.28-21,13.78-2.24,28.52-1.2,40.72,5.57s21.32,20,20.74,34c-.34,8.11-3.79,15.82-8.38,22.5-11.25,16.4-30.15,27.63-50,28.46a54.25,54.25,0,0,1-10.29-.55"/><path class="cls-6" d="M61,103.91C28.32,99,2.49,65.37,28,35c10-11.85,25-18.55,40.28-21,13.78-2.25,28.52-1.21,40.72,5.57s21.32,20,20.74,34c-.34,8.1-3.8,15.81-8.38,22.5-11.25,16.4-30.15,27.63-50,28.46A55,55,0,0,1,61,103.91"/><path d="M59.15,87.68S54,91,46.44,99.44c0,0,23.28,13.48,53.07-3.5L90.65,87.1Z"/><path class="cls-7" d="M59.15,87.68S54,91,46.44,99.44c0,0,23.28,13.48,53.07-3.5L90.65,87.1Z"/><path d="M88.66,101l.57-8.83a20.84,20.84,0,0,1,.4-3.43c.07-.29.27-1.45.57-1.52.14,0,.62.28.76.34l.82.39a32.43,32.43,0,0,1,6,3.59l.17.13a7.16,7.16,0,0,1,2.66,3.48l-2.12,1.33-5.83-6.3.18,9.13L88.66,101"/><path class="cls-7" d="M88.66,101l.57-8.83a20.84,20.84,0,0,1,.4-3.43c.07-.29.27-1.45.57-1.52.14,0,.62.28.76.34l.82.39a32.43,32.43,0,0,1,6,3.59l.17.13a7.16,7.16,0,0,1,2.66,3.48l-2.12,1.33-5.83-6.3.18,9.13Z"/><path d="M55.61,102.66c-.2-3.59-.53-7.17-1-10.73l-7.76,7.8-.78-.36a22.78,22.78,0,0,1,1.82-3.5,20.08,20.08,0,0,1,2.55-3.12,16.72,16.72,0,0,1,7.27-4.31,2,2,0,0,1,.58,1.39C58.93,94.41,59.59,99,60,103.6l-4.37-.94"/><path class="cls-7" d="M55.61,102.66c-.2-3.59-.53-7.17-1-10.73l-7.76,7.8-.78-.36a22.78,22.78,0,0,1,1.82-3.5,20.08,20.08,0,0,1,2.55-3.12,16.72,16.72,0,0,1,7.27-4.31,2,2,0,0,1,.58,1.39C58.93,94.41,59.59,99,60,103.6Z"/><path d="M59.93,88s-5.2,3.27-12.71,11.76c0,0,23.28,13.48,53.07-3.49l-8.86-8.84Z"/><path d="M89.44,101.34c.19-3,.38-5.89.56-8.84a22,22,0,0,1,.41-3.43c.07-.29.27-1.45.57-1.52.14,0,.62.28.76.35l.82.38a32.25,32.25,0,0,1,6,3.6l.17.13a7.09,7.09,0,0,1,2.66,3.47l-2.12,1.33-5.84-6.3c.07,3,.13,6.09.19,9.13l-4.14,1.7"/><path d="M56.38,103c-.19-3.59-.52-7.17-1-10.73l-7.76,7.8-.78-.36a23,23,0,0,1,1.81-3.49,19.76,19.76,0,0,1,2.56-3.13,16.72,16.72,0,0,1,7.27-4.31,2,2,0,0,1,.58,1.39c.66,4.58,1.32,9.16,1.71,13.77L56.38,103"/><path class="cls-5" d="M59.61,88.27S54.41,91.54,46.9,100c0,0,23.28,13.48,53.06-3.49L91.11,87.7Z"/><path class="cls-7" d="M59.61,88.27S54.41,91.54,46.9,100c0,0,23.28,13.48,53.06-3.49L91.11,87.7Z"/><path class="cls-8" d="M89.12,101.61c.19-3,.37-5.89.56-8.84a22,22,0,0,1,.41-3.43c.07-.29.27-1.45.57-1.52.14,0,.61.28.76.35l.82.38a32.25,32.25,0,0,1,6,3.6l.17.13A7,7,0,0,1,101,95.75l-2.11,1.33-5.84-6.3.19,9.13-4.14,1.7"/><path class="cls-9" d="M89.12,101.61c.19-3,.37-5.89.56-8.84a22,22,0,0,1,.41-3.43c.07-.29.27-1.45.57-1.52.14,0,.61.28.76.35l.82.38a32.25,32.25,0,0,1,6,3.6l.17.13A7,7,0,0,1,101,95.75l-2.11,1.33-5.84-6.3.19,9.13Z"/><path class="cls-8" d="M56.06,103.25q-.29-5.39-1-10.73l-7.76,7.8-.78-.36a23,23,0,0,1,1.81-3.49,19.23,19.23,0,0,1,2.56-3.13A16.66,16.66,0,0,1,58.15,89a2.07,2.07,0,0,1,.58,1.39c.66,4.58,1.32,9.16,1.71,13.77l-4.38-.94"/><path class="cls-9" d="M56.06,103.25q-.29-5.39-1-10.73l-7.76,7.8-.78-.36a23,23,0,0,1,1.81-3.49,19.23,19.23,0,0,1,2.56-3.13A16.66,16.66,0,0,1,58.15,89a2.07,2.07,0,0,1,.58,1.39c.66,4.58,1.32,9.16,1.71,13.77Z"/><path class="cls-10" d="M96.65,58.9l0,0,0,0"/><path class="cls-7" d="M96.65,58.9l0,0Z"/><path d="M48.55,67.5a6.72,6.72,0,0,0-.21,1.23A9.06,9.06,0,0,1,47.92,70a20.43,20.43,0,0,1-1.22,2.43c-.13.24-.24.57,0,.73a.54.54,0,0,0,.45,0A6.76,6.76,0,0,0,49,72.5c.22-.13.46-.31.46-.56a11.21,11.21,0,0,1-.18,3.27c0,.24-.08.54.12.68a.63.63,0,0,0,.55,0c.73-.29,1.46-.59,2.18-.9.18.71.05,1.53.47,2.13a1.4,1.4,0,0,0,2.07.14c.18,1,.37,2,.56,3a1.41,1.41,0,0,0,.25.69.52.52,0,0,0,.66.12q-1.75-6-3.5-12.1s-.94-.15-1-.18a8.69,8.69,0,0,1-1.07-.32,7.65,7.65,0,0,1-1-.44,8.57,8.57,0,0,0-1-.55"/><path class="cls-7" d="M48.55,67.5a6.72,6.72,0,0,0-.21,1.23A9.06,9.06,0,0,1,47.92,70a20.43,20.43,0,0,1-1.22,2.43c-.13.24-.24.57,0,.73a.54.54,0,0,0,.45,0A6.76,6.76,0,0,0,49,72.5c.22-.13.46-.31.46-.56a11.21,11.21,0,0,1-.18,3.27c0,.24-.08.54.12.68a.63.63,0,0,0,.55,0c.73-.29,1.46-.59,2.18-.9.18.71.05,1.53.47,2.13a1.4,1.4,0,0,0,2.07.14c.18,1,.37,2,.56,3a1.41,1.41,0,0,0,.25.69.52.52,0,0,0,.66.12q-1.75-6-3.5-12.1s-.94-.15-1-.18a8.69,8.69,0,0,1-1.07-.32,7.65,7.65,0,0,1-1-.44A8.57,8.57,0,0,0,48.55,67.5Z"/><path d="M94.48,75.47a.76.76,0,0,0,.16.34l.92,1.32c.21.3.56.63.88.46a.77.77,0,0,0,.3-.58c.14-.79.27-1.58.42-2.37l1.86,1c.22.12.5.24.71.1a.71.71,0,0,0,.21-.62c0-1.28,0-2.56,0-3.84,0,.16,1.49.7,1.67.76a.56.56,0,0,0,.42,0c.31-.12.26-.56.15-.87-.52-1.49-1-3-1.55-4.46a4.87,4.87,0,0,1-3.91,1.72c-.73,2.24-1.47,4.47-2.2,6.71a.62.62,0,0,0-.06.3"/><path class="cls-7" d="M94.48,75.47a.76.76,0,0,0,.16.34l.92,1.32c.21.3.56.63.88.46a.77.77,0,0,0,.3-.58c.14-.79.27-1.58.42-2.37l1.86,1c.22.12.5.24.71.1a.71.71,0,0,0,.21-.62c0-1.28,0-2.56,0-3.84,0,.16,1.49.7,1.67.76a.56.56,0,0,0,.42,0c.31-.12.26-.56.15-.87-.52-1.49-1-3-1.55-4.46a4.87,4.87,0,0,1-3.91,1.72c-.73,2.24-1.47,4.47-2.2,6.71A.62.62,0,0,0,94.48,75.47Z"/><path d="M52.45,69.1c1.46,4,2.22,8.21,3.57,12.25s3.43,8,6.86,10.52a19.87,19.87,0,0,0,9.9,3.33,35.77,35.77,0,0,0,11.3-.71,8.37,8.37,0,0,0,4.32-2,9.56,9.56,0,0,0,2-3.94q3.17-10.07,6.34-20.12a5.48,5.48,0,0,0,5.5-2.89,7.15,7.15,0,0,0,0-6.39,3.24,3.24,0,0,0-1.27-1.51c-1.28-.7-3,.25-3.58,1.57a8.19,8.19,0,0,0-.3,4.32L90.76,35.6,65,39.52l-6.44,1L55.34,41c-.48.07-.61,0-.81.43A6.38,6.38,0,0,0,54.25,43a83.86,83.86,0,0,0-1.49,12.63c0,1.05,0,2.11.05,3.16s.29,2,.29,3a8.47,8.47,0,0,0-.5-2.93A2.93,2.93,0,0,0,50.44,57a3.23,3.23,0,0,0-2.59,1.08A6.33,6.33,0,0,0,46.68,65a7.29,7.29,0,0,0,5.77,4.11"/><path class="cls-7" d="M52.45,69.1c1.46,4,2.22,8.21,3.57,12.25s3.43,8,6.86,10.52a19.87,19.87,0,0,0,9.9,3.33,35.77,35.77,0,0,0,11.3-.71,8.37,8.37,0,0,0,4.32-2,9.56,9.56,0,0,0,2-3.94q3.17-10.07,6.34-20.12a5.48,5.48,0,0,0,5.5-2.89,7.15,7.15,0,0,0,0-6.39,3.24,3.24,0,0,0-1.27-1.51c-1.28-.7-3,.25-3.58,1.57a8.19,8.19,0,0,0-.3,4.32L90.76,35.6,65,39.52l-6.44,1L55.34,41c-.48.07-.61,0-.81.43A6.38,6.38,0,0,0,54.25,43a83.86,83.86,0,0,0-1.49,12.63c0,1.05,0,2.11.05,3.16s.29,2,.29,3a8.47,8.47,0,0,0-.5-2.93A2.93,2.93,0,0,0,50.44,57a3.23,3.23,0,0,0-2.59,1.08A6.33,6.33,0,0,0,46.68,65,7.29,7.29,0,0,0,52.45,69.1Z"/><path d="M59.53,60a8.81,8.81,0,0,1,.38-3.64A4.81,4.81,0,0,1,62.64,53c2.67-.91,6.65,1.23,7.1,4a10.42,10.42,0,0,1-.88,5.16c-.5,1.37-1.19,2.85-2.54,3.37a3.55,3.55,0,0,1-2.14.06A6.21,6.21,0,0,1,60,62a7.26,7.26,0,0,1-.51-2"/><path class="cls-7" d="M59.53,60a8.81,8.81,0,0,1,.38-3.64A4.81,4.81,0,0,1,62.64,53c2.67-.91,6.65,1.23,7.1,4a10.42,10.42,0,0,1-.88,5.16c-.5,1.37-1.19,2.85-2.54,3.37a3.55,3.55,0,0,1-2.14.06A6.21,6.21,0,0,1,60,62,7.26,7.26,0,0,1,59.53,60Z"/><path d="M48.34,57.69a42,42,0,0,1,3.23-16.56,32.48,32.48,0,0,1,8.13-12,19.58,19.58,0,0,1,12.77-5.4,31.51,31.51,0,0,1,7.57.65,26.78,26.78,0,0,1,8.22,2.95c4.91,2.87,8.35,7.85,10.22,13.22a48.5,48.5,0,0,1,2.18,16.83,3.16,3.16,0,0,0-3.19,2,9.28,9.28,0,0,0-.5,4,27.62,27.62,0,0,1-3.9-11c-.86,1.1-2.73.86-3.66-.17a5.29,5.29,0,0,1-1-3.94,5.36,5.36,0,0,1-6.77,2C79,48.94,78,45.81,76.77,43.15a9.19,9.19,0,0,1-14.4,4.94,7.15,7.15,0,0,1-1.46,3.08A2.84,2.84,0,0,1,57.8,52c-1.33-.59-1.79-2.38-3.12-3a18.9,18.9,0,0,1,.5,7.32,19.11,19.11,0,0,1-2.42,7.1c.66-3.43-.5-6-2-6.45a2.79,2.79,0,0,0-2.38.68"/><path class="cls-7" d="M48.34,57.69a42,42,0,0,1,3.23-16.56,32.48,32.48,0,0,1,8.13-12,19.58,19.58,0,0,1,12.77-5.4,31.51,31.51,0,0,1,7.57.65,26.78,26.78,0,0,1,8.22,2.95c4.91,2.87,8.35,7.85,10.22,13.22a48.5,48.5,0,0,1,2.18,16.83,3.16,3.16,0,0,0-3.19,2,9.28,9.28,0,0,0-.5,4,27.62,27.62,0,0,1-3.9-11c-.86,1.1-2.73.86-3.66-.17a5.29,5.29,0,0,1-1-3.94,5.36,5.36,0,0,1-6.77,2C79,48.94,78,45.81,76.77,43.15a9.19,9.19,0,0,1-14.4,4.94,7.15,7.15,0,0,1-1.46,3.08A2.84,2.84,0,0,1,57.8,52c-1.33-.59-1.79-2.38-3.12-3a18.9,18.9,0,0,1,.5,7.32,19.11,19.11,0,0,1-2.42,7.1c.66-3.43-.5-6-2-6.45A2.79,2.79,0,0,0,48.34,57.69Z"/><path d="M79.71,60.41a8.85,8.85,0,0,1,.37-3.65,4.84,4.84,0,0,1,2.73-3.3c2.67-.91,6.65,1.23,7.1,4A10.43,10.43,0,0,1,89,62.67C88.53,64,87.85,65.51,86.49,66a3.63,3.63,0,0,1-2.14.06,6.22,6.22,0,0,1-4.14-3.7,7.27,7.27,0,0,1-.5-2"/><path class="cls-7" d="M79.71,60.41a8.85,8.85,0,0,1,.37-3.65,4.84,4.84,0,0,1,2.73-3.3c2.67-.91,6.65,1.23,7.1,4A10.43,10.43,0,0,1,89,62.67C88.53,64,87.85,65.51,86.49,66a3.63,3.63,0,0,1-2.14.06,6.22,6.22,0,0,1-4.14-3.7A7.27,7.27,0,0,1,79.71,60.41Z"/><path d="M65.6,58.15a1,1,0,1,1-.95-.95,1,1,0,0,1,.95.95"/><path class="cls-7" d="M65.6,58.15a1,1,0,1,1-.95-.95A1,1,0,0,1,65.6,58.15Z"/><path d="M86.1,58.15a1,1,0,1,1-1-.95,1,1,0,0,1,1,.95"/><path class="cls-7" d="M86.1,58.15a1,1,0,1,1-1-.95A1,1,0,0,1,86.1,58.15Z"/><path d="M69.81,65s-1.14,8.41,4.72,8.74c0,0,5.81-.8,5.75-6,0,0,0-2.59-1.07-3.56"/><path class="cls-7" d="M69.81,65s-1.14,8.41,4.72,8.74c0,0,5.81-.8,5.75-6,0,0,0-2.59-1.07-3.56"/><path d="M70.47,86.85a4.79,4.79,0,0,0,6.15,0"/><path class="cls-7" d="M70.47,86.85a4.79,4.79,0,0,0,6.15,0"/><path d="M63.46,80.26c-.78,0-.5-2.74-.37-3.12.47-1.35,1.45-1.68,2.8-1.74l16.7-.64c1.8-.07,3.9,0,5,1.45a2.64,2.64,0,0,1-1.16,3.92,4.49,4.49,0,0,1-1.42.15l-21.51,0"/><path class="cls-7" d="M63.46,80.26c-.78,0-.5-2.74-.37-3.12.47-1.35,1.45-1.68,2.8-1.74l16.7-.64c1.8-.07,3.9,0,5,1.45a2.64,2.64,0,0,1-1.16,3.92,4.49,4.49,0,0,1-1.42.15Z"/><path d="M92.47,55.32a4.17,4.17,0,0,1,.82,1.8,4.26,4.26,0,0,1-.18,3,.41.41,0,0,1-.15.19.42.42,0,0,1-.25,0,1.6,1.6,0,0,1-.8-.19,1.69,1.69,0,0,1-.56-1.79c.11-.57.34-1.11.46-1.68a3.09,3.09,0,0,1,.66-1.39"/><path class="cls-7" d="M92.47,55.32a4.17,4.17,0,0,1,.82,1.8,4.26,4.26,0,0,1-.18,3,.41.41,0,0,1-.15.19.42.42,0,0,1-.25,0,1.6,1.6,0,0,1-.8-.19,1.69,1.69,0,0,1-.56-1.79c.11-.57.34-1.11.46-1.68A3.09,3.09,0,0,1,92.47,55.32Z"/><path d="M61.48,48.87A11.8,11.8,0,0,1,64.2,49a14.71,14.71,0,0,1,2.75.67,20.71,20.71,0,0,0,2.54,1,3.79,3.79,0,0,0,3.51-1"/><path class="cls-7" d="M61.48,48.87A11.8,11.8,0,0,1,64.2,49a14.71,14.71,0,0,1,2.75.67,20.71,20.71,0,0,0,2.54,1,3.79,3.79,0,0,0,3.51-1"/><line x1="83.26" y1="49.78" x2="91.26" y2="53.2"/><line class="cls-7" x1="83.26" y1="49.78" x2="91.26" y2="53.2"/><path d="M48.55,64.16s-.8-3.92.73-4.42"/><path class="cls-7" d="M48.55,64.16s-.8-3.92.73-4.42"/><path d="M100.4,59.87a4.18,4.18,0,0,1,0,4.16"/><path class="cls-7" d="M100.4,59.87a4.18,4.18,0,0,1,0,4.16"/><path d="M47.48,67.73A6.75,6.75,0,0,0,47.27,69a8.33,8.33,0,0,1-.42,1.31,19.83,19.83,0,0,1-1.22,2.44c-.13.23-.24.57,0,.73a.58.58,0,0,0,.45,0,6.76,6.76,0,0,0,1.9-.74c.22-.13.46-.31.46-.57a11.26,11.26,0,0,1-.18,3.28c0,.24-.08.54.12.67a.63.63,0,0,0,.55,0c.73-.29,1.46-.59,2.18-.9.18.71.05,1.53.47,2.12a1.4,1.4,0,0,0,2.07.15c.18,1,.37,2,.56,3.05a1.37,1.37,0,0,0,.25.68.51.51,0,0,0,.66.13q-1.76-6-3.5-12.1A10.29,10.29,0,0,0,50.54,69a8.2,8.2,0,0,1-1.07-.32c-.35-.13-.69-.28-1-.44a6.31,6.31,0,0,0-1-.55"/><path class="cls-7" d="M47.48,67.73A6.75,6.75,0,0,0,47.27,69a8.33,8.33,0,0,1-.42,1.31,19.83,19.83,0,0,1-1.22,2.44c-.13.23-.24.57,0,.73a.58.58,0,0,0,.45,0,6.76,6.76,0,0,0,1.9-.74c.22-.13.46-.31.46-.57a11.26,11.26,0,0,1-.18,3.28c0,.24-.08.54.12.67a.63.63,0,0,0,.55,0c.73-.29,1.46-.59,2.18-.9.18.71.05,1.53.47,2.12a1.4,1.4,0,0,0,2.07.15c.18,1,.37,2,.56,3.05a1.37,1.37,0,0,0,.25.68.51.51,0,0,0,.66.13q-1.76-6-3.5-12.1A10.29,10.29,0,0,0,50.54,69a8.2,8.2,0,0,1-1.07-.32c-.35-.13-.69-.28-1-.44A6.31,6.31,0,0,0,47.48,67.73Z"/><path d="M93.41,75.7a.81.81,0,0,0,.16.34c.31.44.61.88.92,1.31s.56.64.88.47a.77.77,0,0,0,.3-.58c.14-.79.27-1.59.42-2.38l1.86,1c.22.12.5.24.71.09s.21-.39.21-.61c0-1.28,0-2.57,0-3.85,0,.17,1.49.71,1.67.77a.61.61,0,0,0,.42,0c.31-.12.26-.56.15-.88-.52-1.48-1-3-1.55-4.46a4.85,4.85,0,0,1-3.91,1.73c-.73,2.24-1.47,4.47-2.21,6.71a.73.73,0,0,0,0,.3"/><path class="cls-7" d="M93.41,75.7a.81.81,0,0,0,.16.34c.31.44.61.88.92,1.31s.56.64.88.47a.77.77,0,0,0,.3-.58c.14-.79.27-1.59.42-2.38l1.86,1c.22.12.5.24.71.09s.21-.39.21-.61c0-1.28,0-2.57,0-3.85,0,.17,1.49.71,1.67.77a.61.61,0,0,0,.42,0c.31-.12.26-.56.15-.88-.52-1.48-1-3-1.55-4.46a4.85,4.85,0,0,1-3.91,1.73c-.73,2.24-1.47,4.47-2.21,6.71A.73.73,0,0,0,93.41,75.7Z"/><path d="M51.38,69.32c1.46,4,2.22,8.22,3.57,12.25s3.42,8,6.86,10.53a19.87,19.87,0,0,0,9.9,3.33A36,36,0,0,0,83,94.72a8.49,8.49,0,0,0,4.33-2,9.56,9.56,0,0,0,2-3.94q3.17-10.07,6.34-20.12a5.47,5.47,0,0,0,5.5-2.9,7.15,7.15,0,0,0,0-6.39,3.22,3.22,0,0,0-1.27-1.5c-1.28-.7-3,.24-3.58,1.57a8.19,8.19,0,0,0-.3,4.32L89.69,35.83,63.93,39.75l-6.44,1-3.22.49c-.49.08-.61,0-.81.44a6.38,6.38,0,0,0-.28,1.59,82.44,82.44,0,0,0-1.49,12.63c0,1,0,2.11.05,3.16s.29,2,.29,3a8.57,8.57,0,0,0-.5-2.94,3,3,0,0,0-2.16-1.86,3.15,3.15,0,0,0-2.59,1.08,6.32,6.32,0,0,0-1.17,6.87,7.28,7.28,0,0,0,5.77,4.1"/><path class="cls-7" d="M51.38,69.32c1.46,4,2.22,8.22,3.57,12.25s3.42,8,6.86,10.53a19.87,19.87,0,0,0,9.9,3.33A36,36,0,0,0,83,94.72a8.49,8.49,0,0,0,4.33-2,9.56,9.56,0,0,0,2-3.94q3.17-10.07,6.34-20.12a5.47,5.47,0,0,0,5.5-2.9,7.15,7.15,0,0,0,0-6.39,3.22,3.22,0,0,0-1.27-1.5c-1.28-.7-3,.24-3.58,1.57a8.19,8.19,0,0,0-.3,4.32L89.69,35.83,63.93,39.75l-6.44,1-3.22.49c-.49.08-.61,0-.81.44a6.38,6.38,0,0,0-.28,1.59,82.44,82.44,0,0,0-1.49,12.63c0,1,0,2.11.05,3.16s.29,2,.29,3a8.57,8.57,0,0,0-.5-2.94,3,3,0,0,0-2.16-1.86,3.15,3.15,0,0,0-2.59,1.08,6.32,6.32,0,0,0-1.17,6.87A7.28,7.28,0,0,0,51.38,69.32Z"/><path d="M58.46,60.21a8.81,8.81,0,0,1,.38-3.64,4.81,4.81,0,0,1,2.73-3.31c2.67-.91,6.65,1.23,7.1,4a10.44,10.44,0,0,1-.88,5.17c-.5,1.36-1.19,2.85-2.54,3.37a3.63,3.63,0,0,1-2.14.06A6.21,6.21,0,0,1,59,62.21a7.36,7.36,0,0,1-.51-2"/><path class="cls-7" d="M58.46,60.21a8.81,8.81,0,0,1,.38-3.64,4.81,4.81,0,0,1,2.73-3.31c2.67-.91,6.65,1.23,7.1,4a10.44,10.44,0,0,1-.88,5.17c-.5,1.36-1.19,2.85-2.54,3.37a3.63,3.63,0,0,1-2.14.06A6.21,6.21,0,0,1,59,62.21,7.36,7.36,0,0,1,58.46,60.21Z"/><path d="M47.27,57.92A41.94,41.94,0,0,1,50.5,41.36a32.48,32.48,0,0,1,8.13-12A19.58,19.58,0,0,1,71.4,24a31,31,0,0,1,7.57.65,26.78,26.78,0,0,1,8.22,2.95c4.91,2.87,8.35,7.84,10.22,13.22a48.5,48.5,0,0,1,2.18,16.83,3.14,3.14,0,0,0-3.19,2,9.26,9.26,0,0,0-.5,4,27.57,27.57,0,0,1-3.9-11c-.86,1.09-2.73.86-3.66-.18a5.26,5.26,0,0,1-1-3.93,5.36,5.36,0,0,1-6.77,2c-2.62-1.31-3.61-4.45-4.85-7.1a9.19,9.19,0,0,1-14.4,4.94,7.21,7.21,0,0,1-1.46,3.08,2.84,2.84,0,0,1-3.11.84c-1.33-.59-1.79-2.38-3.12-3a18.83,18.83,0,0,1-1.92,14.42c.66-3.42-.5-6-2-6.44a2.75,2.75,0,0,0-2.38.68"/><path class="cls-7" d="M47.27,57.92A41.94,41.94,0,0,1,50.5,41.36a32.48,32.48,0,0,1,8.13-12A19.58,19.58,0,0,1,71.4,24a31,31,0,0,1,7.57.65,26.78,26.78,0,0,1,8.22,2.95c4.91,2.87,8.35,7.84,10.22,13.22a48.5,48.5,0,0,1,2.18,16.83,3.14,3.14,0,0,0-3.19,2,9.26,9.26,0,0,0-.5,4,27.57,27.57,0,0,1-3.9-11c-.86,1.09-2.73.86-3.66-.18a5.26,5.26,0,0,1-1-3.93,5.36,5.36,0,0,1-6.77,2c-2.62-1.31-3.61-4.45-4.85-7.1a9.19,9.19,0,0,1-14.4,4.94,7.21,7.21,0,0,1-1.46,3.08,2.84,2.84,0,0,1-3.11.84c-1.33-.59-1.79-2.38-3.12-3a18.83,18.83,0,0,1-1.92,14.42c.66-3.42-.5-6-2-6.44A2.75,2.75,0,0,0,47.27,57.92Z"/><path d="M78.63,60.63A9,9,0,0,1,79,57a4.86,4.86,0,0,1,2.73-3.31c2.67-.91,6.65,1.23,7.1,4A10.35,10.35,0,0,1,88,62.9c-.5,1.36-1.18,2.84-2.54,3.36a3.63,3.63,0,0,1-2.14.07,6.24,6.24,0,0,1-4.14-3.7,7.64,7.64,0,0,1-.51-2"/><path class="cls-7" d="M78.63,60.63A9,9,0,0,1,79,57a4.86,4.86,0,0,1,2.73-3.31c2.67-.91,6.65,1.23,7.1,4A10.35,10.35,0,0,1,88,62.9c-.5,1.36-1.18,2.84-2.54,3.36a3.63,3.63,0,0,1-2.14.07,6.24,6.24,0,0,1-4.14-3.7A7.64,7.64,0,0,1,78.63,60.63Z"/><path d="M64.53,58.38a1,1,0,1,1-1.91,0,1,1,0,0,1,1.91,0"/><path class="cls-7" d="M64.53,58.38a1,1,0,1,1-1.91,0,1,1,0,0,1,1.91,0Z"/><path d="M85,58.38a1,1,0,1,1-1.91,0,1,1,0,0,1,1.91,0"/><path class="cls-7" d="M85,58.38a1,1,0,1,1-1.91,0,1,1,0,0,1,1.91,0Z"/><path d="M68.74,65.18s-1.14,8.41,4.72,8.74c0,0,5.81-.8,5.75-6,0,0,0-2.59-1.07-3.57"/><path class="cls-7" d="M68.74,65.18s-1.14,8.41,4.72,8.74c0,0,5.81-.8,5.75-6,0,0,0-2.59-1.07-3.57"/><path d="M69.4,87.08a4.79,4.79,0,0,0,6.15,0"/><path class="cls-7" d="M69.4,87.08a4.79,4.79,0,0,0,6.15,0"/><path d="M62.39,80.49c-.78,0-.5-2.74-.37-3.12.47-1.35,1.45-1.69,2.8-1.74L81.52,75c1.79-.07,3.89,0,5,1.45a2.64,2.64,0,0,1-1.16,3.92,4.52,4.52,0,0,1-1.42.15l-21.51,0"/><path class="cls-7" d="M62.39,80.49c-.78,0-.5-2.74-.37-3.12.47-1.35,1.45-1.69,2.8-1.74L81.52,75c1.79-.07,3.89,0,5,1.45a2.64,2.64,0,0,1-1.16,3.92,4.52,4.52,0,0,1-1.42.15Z"/><path d="M91.4,55.54A5.21,5.21,0,0,1,92,60.36a.47.47,0,0,1-.15.19.51.51,0,0,1-.25.05,1.6,1.6,0,0,1-.8-.19,1.7,1.7,0,0,1-.56-1.8c.11-.57.34-1.11.46-1.67a3.12,3.12,0,0,1,.66-1.4"/><path class="cls-7" d="M91.4,55.54A5.21,5.21,0,0,1,92,60.36a.47.47,0,0,1-.15.19.51.51,0,0,1-.25.05,1.6,1.6,0,0,1-.8-.19,1.7,1.7,0,0,1-.56-1.8c.11-.57.34-1.11.46-1.67A3.12,3.12,0,0,1,91.4,55.54Z"/><path d="M60.41,49.1a11.27,11.27,0,0,1,2.72.09,14.71,14.71,0,0,1,2.75.67,20.66,20.66,0,0,0,2.54,1,3.76,3.76,0,0,0,3.51-1"/><path class="cls-7" d="M60.41,49.1a11.27,11.27,0,0,1,2.72.09,14.71,14.71,0,0,1,2.75.67,20.66,20.66,0,0,0,2.54,1,3.76,3.76,0,0,0,3.51-1"/><line x1="82.19" y1="50.01" x2="90.19" y2="53.43"/><line class="cls-7" x1="82.19" y1="50.01" x2="90.19" y2="53.43"/><path d="M47.48,64.39s-.8-3.92.73-4.43"/><path class="cls-7" d="M47.48,64.39s-.8-3.92.73-4.43"/><path d="M99.33,60.1a4.18,4.18,0,0,1,0,4.16"/><path class="cls-7" d="M99.33,60.1a4.18,4.18,0,0,1,0,4.16"/><path class="cls-11" d="M48.09,67.73a6.76,6.76,0,0,0-.2,1.22,8.37,8.37,0,0,1-.43,1.31,18.51,18.51,0,0,1-1.22,2.44c-.13.23-.24.57,0,.73a.58.58,0,0,0,.45,0,6.76,6.76,0,0,0,1.9-.74c.22-.13.46-.31.47-.57a11.26,11.26,0,0,1-.19,3.28c-.05.24-.08.54.12.67a.63.63,0,0,0,.55,0q1.1-.44,2.19-.9c.17.71,0,1.53.46,2.12a1.4,1.4,0,0,0,2.07.15c.18,1,.37,2,.56,3.05a1.47,1.47,0,0,0,.25.68.51.51,0,0,0,.66.13q-1.76-6-3.5-12.1s-.94-.16-1-.18a7.76,7.76,0,0,1-1.07-.32c-.35-.13-.7-.28-1-.44a5.87,5.87,0,0,0-1-.55"/><path class="cls-7" d="M48.09,67.73a6.76,6.76,0,0,0-.2,1.22,8.37,8.37,0,0,1-.43,1.31,18.51,18.51,0,0,1-1.22,2.44c-.13.23-.24.57,0,.73a.58.58,0,0,0,.45,0,6.76,6.76,0,0,0,1.9-.74c.22-.13.46-.31.47-.57a11.26,11.26,0,0,1-.19,3.28c-.05.24-.08.54.12.67a.63.63,0,0,0,.55,0q1.1-.44,2.19-.9c.17.71,0,1.53.46,2.12a1.4,1.4,0,0,0,2.07.15c.18,1,.37,2,.56,3.05a1.47,1.47,0,0,0,.25.68.51.51,0,0,0,.66.13q-1.76-6-3.5-12.1s-.94-.16-1-.18a7.76,7.76,0,0,1-1.07-.32c-.35-.13-.7-.28-1-.44A5.87,5.87,0,0,0,48.09,67.73Z"/><path class="cls-11" d="M94,75.7a1,1,0,0,0,.16.34c.31.44.61.88.92,1.31s.56.64.88.47a.77.77,0,0,0,.3-.58l.42-2.38,1.86,1c.22.12.5.24.71.09s.21-.39.21-.61c0-1.28,0-2.57,0-3.85,0,.17,1.49.71,1.67.77a.64.64,0,0,0,.43,0c.3-.12.25-.56.14-.88-.52-1.48-1-3-1.55-4.46a4.85,4.85,0,0,1-3.91,1.73c-.73,2.24-1.47,4.47-2.2,6.71a.6.6,0,0,0-.06.3"/><path class="cls-7" d="M94,75.7a1,1,0,0,0,.16.34c.31.44.61.88.92,1.31s.56.64.88.47a.77.77,0,0,0,.3-.58l.42-2.38,1.86,1c.22.12.5.24.71.09s.21-.39.21-.61c0-1.28,0-2.57,0-3.85,0,.17,1.49.71,1.67.77a.64.64,0,0,0,.43,0c.3-.12.25-.56.14-.88-.52-1.48-1-3-1.55-4.46a4.85,4.85,0,0,1-3.91,1.73c-.73,2.24-1.47,4.47-2.2,6.71A.6.6,0,0,0,94,75.7Z"/><path class="cls-5" d="M52,69.32c1.46,4,2.22,8.22,3.57,12.25s3.43,8,6.86,10.53a19.91,19.91,0,0,0,9.91,3.33,36,36,0,0,0,11.29-.71,8.45,8.45,0,0,0,4.32-2,9.44,9.44,0,0,0,2-3.94q3.16-10.07,6.34-20.12a5.47,5.47,0,0,0,5.5-2.9,7.12,7.12,0,0,0,0-6.39,3.26,3.26,0,0,0-1.26-1.5c-1.29-.7-3,.24-3.59,1.57a8.19,8.19,0,0,0-.3,4.32L90.3,35.83,64.54,39.75l-6.44,1-3.22.49c-.48.08-.6,0-.81.44a6.38,6.38,0,0,0-.28,1.59A83.71,83.71,0,0,0,52.3,55.88c0,1,0,2.11.05,3.16s.29,2,.29,3a8.57,8.57,0,0,0-.5-2.94A2.94,2.94,0,0,0,50,57.27a3.17,3.17,0,0,0-2.59,1.08,6.33,6.33,0,0,0-1.17,6.87A7.28,7.28,0,0,0,52,69.32"/><path class="cls-7" d="M52,69.32c1.46,4,2.22,8.22,3.57,12.25s3.43,8,6.86,10.53a19.91,19.91,0,0,0,9.91,3.33,36,36,0,0,0,11.29-.71,8.45,8.45,0,0,0,4.32-2,9.44,9.44,0,0,0,2-3.94q3.16-10.07,6.34-20.12a5.47,5.47,0,0,0,5.5-2.9,7.12,7.12,0,0,0,0-6.39,3.26,3.26,0,0,0-1.26-1.5c-1.29-.7-3,.24-3.59,1.57a8.19,8.19,0,0,0-.3,4.32L90.3,35.83,64.54,39.75l-6.44,1-3.22.49c-.48.08-.6,0-.81.44a6.38,6.38,0,0,0-.28,1.59A83.71,83.71,0,0,0,52.3,55.88c0,1,0,2.11.05,3.16s.29,2,.29,3a8.57,8.57,0,0,0-.5-2.94A2.94,2.94,0,0,0,50,57.27a3.17,3.17,0,0,0-2.59,1.08,6.33,6.33,0,0,0-1.17,6.87A7.28,7.28,0,0,0,52,69.32Z"/><path class="cls-12" d="M59.07,60.21a8.81,8.81,0,0,1,.38-3.64,4.81,4.81,0,0,1,2.73-3.31c2.67-.91,6.65,1.23,7.1,4a10.44,10.44,0,0,1-.88,5.17c-.5,1.36-1.19,2.85-2.54,3.37a3.63,3.63,0,0,1-2.14.06,6.21,6.21,0,0,1-4.14-3.69,7.36,7.36,0,0,1-.51-2"/><path class="cls-7" d="M59.07,60.21a8.81,8.81,0,0,1,.38-3.64,4.81,4.81,0,0,1,2.73-3.31c2.67-.91,6.65,1.23,7.1,4a10.44,10.44,0,0,1-.88,5.17c-.5,1.36-1.19,2.85-2.54,3.37a3.63,3.63,0,0,1-2.14.06,6.21,6.21,0,0,1-4.14-3.69A7.36,7.36,0,0,1,59.07,60.21Z"/><path class="cls-11" d="M47.88,57.92a41.8,41.8,0,0,1,3.24-16.56,32.43,32.43,0,0,1,8.12-12A19.58,19.58,0,0,1,72,24a31,31,0,0,1,7.57.65,26.78,26.78,0,0,1,8.22,2.95c4.91,2.87,8.36,7.84,10.22,13.22a48.5,48.5,0,0,1,2.18,16.83,3.14,3.14,0,0,0-3.19,2,9.26,9.26,0,0,0-.5,4,27.41,27.41,0,0,1-3.89-11c-.86,1.09-2.73.86-3.67-.18a5.26,5.26,0,0,1-1-3.93,5.36,5.36,0,0,1-6.77,2c-2.62-1.31-3.61-4.45-4.85-7.1a9.19,9.19,0,0,1-14.4,4.94,7.21,7.21,0,0,1-1.46,3.08,2.84,2.84,0,0,1-3.11.84c-1.33-.59-1.79-2.38-3.12-3A18.83,18.83,0,0,1,52.3,63.68c.66-3.42-.49-6-2-6.44a2.75,2.75,0,0,0-2.38.68"/><path class="cls-7" d="M47.88,57.92a41.8,41.8,0,0,1,3.24-16.56,32.43,32.43,0,0,1,8.12-12A19.58,19.58,0,0,1,72,24a31,31,0,0,1,7.57.65,26.78,26.78,0,0,1,8.22,2.95c4.91,2.87,8.36,7.84,10.22,13.22a48.5,48.5,0,0,1,2.18,16.83,3.14,3.14,0,0,0-3.19,2,9.26,9.26,0,0,0-.5,4,27.41,27.41,0,0,1-3.89-11c-.86,1.09-2.73.86-3.67-.18a5.26,5.26,0,0,1-1-3.93,5.36,5.36,0,0,1-6.77,2c-2.62-1.31-3.61-4.45-4.85-7.1a9.19,9.19,0,0,1-14.4,4.94,7.21,7.21,0,0,1-1.46,3.08,2.84,2.84,0,0,1-3.11.84c-1.33-.59-1.79-2.38-3.12-3A18.83,18.83,0,0,1,52.3,63.68c.66-3.42-.49-6-2-6.44A2.75,2.75,0,0,0,47.88,57.92Z"/><path class="cls-12" d="M79.25,60.63A8.82,8.82,0,0,1,79.62,57a4.85,4.85,0,0,1,2.74-3.31c2.67-.91,6.64,1.23,7.09,4a10.45,10.45,0,0,1-.87,5.17c-.5,1.36-1.19,2.84-2.55,3.36a3.63,3.63,0,0,1-2.14.07,6.29,6.29,0,0,1-4.14-3.7,7.25,7.25,0,0,1-.5-2"/><path class="cls-7" d="M79.25,60.63A8.82,8.82,0,0,1,79.62,57a4.85,4.85,0,0,1,2.74-3.31c2.67-.91,6.64,1.23,7.09,4a10.45,10.45,0,0,1-.87,5.17c-.5,1.36-1.19,2.84-2.55,3.36a3.63,3.63,0,0,1-2.14.07,6.29,6.29,0,0,1-4.14-3.7A7.25,7.25,0,0,1,79.25,60.63Z"/><path class="cls-13" d="M65.14,58.38a1,1,0,1,1-1-1,1,1,0,0,1,1,1"/><path class="cls-14" d="M65.14,58.38a1,1,0,1,1-1-1A1,1,0,0,1,65.14,58.38Z"/><path class="cls-13" d="M85.64,58.38a1,1,0,1,1-1-1,1,1,0,0,1,1,1"/><path class="cls-14" d="M85.64,58.38a1,1,0,1,1-1-1A1,1,0,0,1,85.64,58.38Z"/><path class="cls-7" d="M69.35,65.18s-1.14,8.41,4.72,8.74c0,0,5.81-.8,5.75-6,0,0,0-2.59-1.07-3.57"/><path class="cls-7" d="M70,87.08a4.79,4.79,0,0,0,6.15,0"/><path class="cls-15" d="M63,80.49c-.77,0-.5-2.74-.37-3.12.47-1.35,1.46-1.69,2.8-1.74L82.13,75c1.8-.07,3.9,0,5,1.45a2.64,2.64,0,0,1-1.16,3.92,4.49,4.49,0,0,1-1.42.15L63,80.49"/><path class="cls-7" d="M63,80.49c-.77,0-.5-2.74-.37-3.12.47-1.35,1.46-1.69,2.8-1.74L82.13,75c1.8-.07,3.9,0,5,1.45a2.64,2.64,0,0,1-1.16,3.92,4.49,4.49,0,0,1-1.42.15Z"/><path class="cls-8" d="M92,55.54a4.15,4.15,0,0,1,.82,1.81,4.32,4.32,0,0,1-.17,3,.49.49,0,0,1-.16.19.51.51,0,0,1-.25.05,1.54,1.54,0,0,1-.79-.19,1.7,1.7,0,0,1-.57-1.8c.11-.57.34-1.11.47-1.67a3,3,0,0,1,.65-1.4"/><path class="cls-9" d="M92,55.54a4.15,4.15,0,0,1,.82,1.81,4.32,4.32,0,0,1-.17,3,.49.49,0,0,1-.16.19.51.51,0,0,1-.25.05,1.54,1.54,0,0,1-.79-.19,1.7,1.7,0,0,1-.57-1.8c.11-.57.34-1.11.47-1.67A3,3,0,0,1,92,55.54Z"/><path class="cls-9" d="M61,49.1a11.25,11.25,0,0,1,2.72.09,14.52,14.52,0,0,1,2.75.67,20.66,20.66,0,0,0,2.54,1,3.75,3.75,0,0,0,3.51-1"/><line class="cls-9" x1="82.8" y1="50.01" x2="90.8" y2="53.43"/><path class="cls-7" d="M48.09,64.39s-.79-3.92.73-4.43"/><path class="cls-7" d="M99.94,60.1a4.18,4.18,0,0,1,0,4.16"/></g></g></svg>